inDegrees=no
num_controls=7
num_derivatives=13
num_iterations=187
num_multipliers=7
num_parameters=0
num_slacks=7
num_states=26
objective=5.616289
objective_accelerations=0.618846
objective_balance=0.005813
objective_effort=0.464594
objective_height=4.457426
objective_ligament=0.069609
solver_duration=1544.141355
status=Solve_Succeeded
success=true
DataType=double
version=3
OpenSimVersion=4.4-2022-07-23-0e9fedc
endheader
time	/jointset/ground_pelvis/pelvis_tilt/value	/jointset/ground_pelvis/pelvis_tx/value	/jointset/ground_pelvis/pelvis_ty/value	/jointset/hip_r/hip_flexion_r/value	/jointset/hip_r/hip_adduction_r/value	/jointset/hip_r/hip_rotation_r/value	/jointset/back/lumbar_extension/value	/jointset/patellofemoral_r/patellar_flexion_r/value	/jointset/knee_r/knee_flexion_r/value	/jointset/knee_r/knee_adduction_r/value	/jointset/knee_r/knee_rotation_r/value	/jointset/ankle_r/ankle_angle_r/value	/jointset/subtalar_r/subtalar_angle_r/value	/jointset/ground_pelvis/pelvis_tilt/speed	/jointset/ground_pelvis/pelvis_tx/speed	/jointset/ground_pelvis/pelvis_ty/speed	/jointset/hip_r/hip_flexion_r/speed	/jointset/hip_r/hip_adduction_r/speed	/jointset/hip_r/hip_rotation_r/speed	/jointset/back/lumbar_extension/speed	/jointset/patellofemoral_r/patellar_flexion_r/speed	/jointset/knee_r/knee_flexion_r/speed	/jointset/knee_r/knee_adduction_r/speed	/jointset/knee_r/knee_rotation_r/speed	/jointset/ankle_r/ankle_angle_r/speed	/jointset/subtalar_r/subtalar_angle_r/speed	/forceset/tau_hip_flexion_r	/forceset/tau_hip_adduction_r	/forceset/tau_hip_rotation_r	/forceset/tau_knee_flexion_r	/forceset/tau_ankle_angle_r	/forceset/tau_subtalar_angle_r	/forceset/tau_lumbar_extension	lambda_cid13_p0	lambda_cid14_p0	lambda_cid14_p1	lambda_cid14_p2	lambda_cid14_p3	lambda_cid14_p4	lambda_cid14_p5	/jointset/ground_pelvis/pelvis_tilt/accel	/jointset/ground_pelvis/pelvis_tx/accel	/jointset/ground_pelvis/pelvis_ty/accel	/jointset/hip_r/hip_flexion_r/accel	/jointset/hip_r/hip_adduction_r/accel	/jointset/hip_r/hip_rotation_r/accel	/jointset/back/lumbar_extension/accel	/jointset/patellofemoral_r/patellar_flexion_r/accel	/jointset/knee_r/knee_flexion_r/accel	/jointset/knee_r/knee_adduction_r/accel	/jointset/knee_r/knee_rotation_r/accel	/jointset/ankle_r/ankle_angle_r/accel	/jointset/subtalar_r/subtalar_angle_r/accel	gamma_cid13_p0	gamma_cid14_p0	gamma_cid14_p1	gamma_cid14_p2	gamma_cid14_p3	gamma_cid14_p4	gamma_cid14_p5
0	0.004028830200172613	0.1258263212247268	0.9348545964004021	0.1934208783645156	-0.2092226554780831	-0.2359507533074296	-0.2903791543005566	0.2311793314021628	0.2311793314021609	0.0919738918323318	0.1562810997030513	0.08934340440958972	0.08732256012164027	0	0	0	0	0	0	0	0	0	0	0	0	0	0.1100166593452532	-0.05755695295048026	0.001165106201096042	-0.2384926375098287	0.1127359231117927	-0.04958425695843295	-0.02993011167453164	-29.31239902902222	-8.218211565995805	-19.17798437085883	-0.8558397438251522	4.758719435954831	-608.3071599998215	61.63291970003804	-1.867228182508401	-1.907116985399615	-0.8897913168346077	10.08067283230304	-0.0229385199791409	1.714075669318088	-6.358032920417705	10.34320285984679	10.34320285984681	-2.665592682931062	0.7024661166345905	2.759978982389992	0.8058089481953773	2.502751069231557e-08	1.692176665954723e-08	-2.034707018428557e-07	1.657572428755731e-07	4.419968444699826e-09	1.38318099425349e-07	-1.872263476232507e-07
0.01	0.003941684229064882	0.1257324503740815	0.9348113558851994	0.1939109798609245	-0.2092225316470118	-0.235865209843694	-0.2906986364756353	0.2316862931365029	0.2316862931365054	0.09184070037170977	0.1563132398562824	0.08947903726053233	0.08736369620714841	-0.01736828201306171	-0.01865117093308252	-0.008623323489236275	0.09754583560785735	1.276478951321142e-05	0.0170393053284848	-0.06346676811970627	0.1009272837996696	0.1009272837996692	-0.02648611927756695	0.006380135219415712	0.02704171367638737	0.008188183445345651	0.106703872959004	-0.06117665881992692	0.001308740750334561	-0.2366559637601793	0.110332064127437	-0.04543917440036351	-0.02665939859734741	-29.31897011859584	-8.799720024650313	-17.38652732104765	-1.247750624467127	4.089589556235601	-609.9239826376352	65.19893934576298	-1.662494050385685	-1.825666383893149	-0.8448582686475237	9.52036878129293	0.01158058536434854	1.688484049988131	-6.276548723298671	9.897726674159257	9.897726674159188	-2.617313367804311	0.5986358121683509	2.663543363469236	0.8194555995533718	3.166059941517223e-08	-3.529046429418235e-10	-2.466626617113041e-07	1.640348730387268e-07	2.393927332934524e-08	1.728334334007559e-09	-2.016850983149533e-07
0.02	0.003682682269888725	0.1254557579667793	0.9346826310543682	0.1953623056846675	-0.2092226408466556	-0.2356113481096004	-0.2916398963250214	0.2331885748156753	0.233188574815675	0.09144720935480434	0.1564077510792018	0.0898825424088795	0.08748554063847987	-0.03437119761334605	-0.03656431133138917	-0.01709686312565881	0.1922448654663477	-4.660614306479206e-05	0.03366365407194916	-0.1243555348614741	0.1990639889646282	0.1990639889646273	-0.05205991126052709	0.012474213941765	0.05357445948102001	0.01614166916466026	0.1033910865727875	-0.06479636468936623	0.001452375299478914	-0.2348192900105111	0.1079282051430892	-0.04129409184228111	-0.02338868552014253	-29.33815895401659	-9.301015210423927	-15.59408453367532	-1.624901486505047	3.432990815408517	-610.270763110718	68.5288205294934	-1.794154899952906	-1.75951087844445	-0.8598345462718598	9.511311682429637	-0.03736566439738578	1.631084352314	-5.842432644829998	9.785087132904607	9.785087132904614	-2.483127224009694	0.645254817221308	2.658185408039041	0.7588694029891663	3.829368813802888e-08	-1.762757594543088e-08	-2.898546215797525e-07	1.623125032018805e-07	4.345857821399065e-08	-1.348614307573339e-07	-2.161438490066558e-07
0.03	0.003255214316703142	0.1250033666177507	0.934469619026006	0.1977471189831813	-0.2092238239757067	-0.2351937889075138	-0.2931769559109939	0.2356584813767889	0.2356584813767811	0.09080277365310915	0.1565621287938763	0.09054848923869439	0.0876855229599347	-0.05104626248308794	-0.053815756771137	-0.0255031659755217	0.2842645906115766	-0.0001942715033318639	0.04976116988832276	-0.1826519065633095	0.2944551226085879	0.2944551226085883	-0.07668703393483695	0.01834616012622465	0.07949881377474477	0.02381813308257054	0.09862526864688957	-0.06124447133500406	0.001608623097145627	-0.2310368970325141	0.1037815397789977	-0.0415348615133347	-0.01927938824782231	-29.36912041956561	-10.64448198146939	-15.88082040732341	-1.639797342494308	3.6703780624269	-610.6466176109665	67.14627541101787	-1.592759557218926	-1.69322235069208	-0.8306991928135048	8.979322670102437	-0.004113661568249558	1.586068702847354	-5.762568067366812	9.346788697321271	9.346788697321491	-2.431505153677852	0.5499227380127174	2.542150410645524	0.7665098709451668	3.977560382993867e-08	-3.060390801721564e-08	-2.968351941223749e-07	1.16612248278247e-07	5.506664127413146e-08	-2.486127593738537e-07	-1.819542104490106e-07
